<svg xmlns="http://www.w3.org/2000/svg" width="144" height="48" viewBox="0 0 144 48"><g transform="translate(-16 -16)"><path d="M0,0H144V48H0Z" transform="translate(16 16)" fill="#03565c"/><path d="M1,1V47H143V1H1M0,0H144V48H0Z" transform="translate(16 16)" fill="#0af8e8"/><path d="M.5,32.026h-1V0h1Z" transform="translate(64 24.026)" fill="#0af8e8"/><path d="M-15.594-9.039V-10.2h5.719v1.188A24.837,24.837,0,0,1-11.75-6.477v.906q.281.2.578.406A26.654,26.654,0,0,0-9.047-7.523l.969.859Q-9.3-5.555-10.359-4.6q.984.688,1.938,1.375L-9.187-2.18q-1.422-1.187-2.562-2.062V2.1h-1.266V-5.117A23.6,23.6,0,0,1-15.391-3.07q-.2-.7-.422-1.344a19.647,19.647,0,0,0,4.5-4.625Zm9.031-4.125h1.3v5.2l.8-.625q2.391,2.125,4.3,4.125L-1.281-3.43a49.031,49.031,0,0,0-3.984-4.2V2.1h-1.3Zm-6.844.516,1.094-.547q.578.922,1.219,2.141l-1.156.594Q-12.859-11.727-13.406-12.648ZM3.016-11.164v4.391A28.366,28.366,0,0,1,2.641-1.43,10.1,10.1,0,0,1,1.125,2.133Q.5,1.4.188,1.055A9.585,9.585,0,0,0,1.422-2.039,24.716,24.716,0,0,0,1.75-6.711V-12.32H13.313v8.531A14.505,14.505,0,0,0,13.672.133q.156.359.391.359.25,0,.328-.547.125-.828.219-2.641.719.281,1.188.422Q15.641-.633,15.469.367q-.281,1.547-1.453,1.547-.875,0-1.453-1.172a12.45,12.45,0,0,1-.516-4.5v-7.406Zm.969,1.828.969-.719Q6.242-8.281,7.594-6.336q1.187-1.937,2.25-4.031l1.063.516Q9.742-7.477,8.359-5.242,9.891-3.016,11.5-.586l-1.094.75q-1.445-2.25-2.781-4.25a55.328,55.328,0,0,1-3.3,4.5A10.2,10.2,0,0,0,3.313-.352,50.9,50.9,0,0,0,6.875-5.2Q5.352-7.438,3.984-9.336Z" transform="translate(96 45.026)" fill="#0af8e8"/><path d="M90-821l-3.5-3.5,1.4-1.4,1.1,1.075V-831h2v6.175l1.1-1.075,1.4,1.4Zm-6-4-3.5-3.5,1.4-1.4,1.1,1.075V-835h2v6.175l1.1-1.075,1.4,1.4Zm12,0-3.5-3.5,1.4-1.4,1.1,1.075V-835h2v6.175l1.1-1.075,1.4,1.4Zm-16-7v-8h20v8H98v-6H82v6Z" transform="translate(-50 871)" fill="#0af8e8"/></g></svg>